<svg width="130" height="34" viewBox="0 0 130 34" fill="none" xmlns="http://www.w3.org/2000/svg">
<path d="M42.864 17.56C43.984 17.56 45.024 17.768 45.984 18.184V21.144H45.088L44.352 18.776C44.064 18.7333 43.7707 18.712 43.472 18.712C42.1813 18.712 41.168 19.112 40.432 19.912C39.696 20.712 39.328 21.8747 39.328 23.4C39.328 26.5253 40.6027 28.088 43.152 28.088C43.312 28.088 43.4667 28.0827 43.616 28.072V25.032L41.792 24.472V23.736H47.408V24.472L46.224 25.032V28.456C46.0107 28.5627 45.76 28.664 45.472 28.76C45.184 28.856 44.8747 28.936 44.544 29C44.2133 29.0747 43.8773 29.1333 43.536 29.176C43.1947 29.2187 42.864 29.24 42.544 29.24C40.656 29.24 39.2053 28.7333 38.192 27.72C37.1787 26.7067 36.672 25.2667 36.672 23.4C36.672 21.5333 37.2053 20.0933 38.272 19.08C39.3387 18.0667 40.8693 17.56 42.864 17.56ZM52.5043 29.24C51.8963 29.24 51.3256 29.1333 50.7923 28.92C50.2696 28.7067 49.8163 28.4133 49.4323 28.04C49.0483 27.6667 48.7443 27.2187 48.5203 26.696C48.2963 26.1733 48.1842 25.6027 48.1842 24.984C48.1842 24.3653 48.2963 23.8 48.5203 23.288C48.7443 22.7653 49.0483 22.3173 49.4323 21.944C49.8163 21.5707 50.2696 21.2827 50.7923 21.08C51.3256 20.8667 51.8963 20.76 52.5043 20.76C53.1123 20.76 53.6776 20.8667 54.2003 21.08C54.7229 21.2827 55.1763 21.5707 55.5603 21.944C55.9549 22.3173 56.2589 22.7653 56.4722 23.288C56.6963 23.8 56.8083 24.3653 56.8083 24.984C56.8083 25.592 56.6963 26.1573 56.4722 26.68C56.2589 27.2027 55.9549 27.656 55.5603 28.04C55.1763 28.4133 54.7229 28.7067 54.2003 28.92C53.6776 29.1333 53.1123 29.24 52.5043 29.24ZM50.7603 24.984C50.7603 25.9867 50.9043 26.776 51.1923 27.352C51.4909 27.9173 51.9283 28.2 52.5043 28.2C53.0803 28.2 53.5123 27.9173 53.8003 27.352C54.0989 26.776 54.2483 25.9867 54.2483 24.984C54.2483 23.992 54.0989 23.2133 53.8003 22.648C53.5123 22.0827 53.0803 21.8 52.5043 21.8C51.9283 21.8 51.4909 22.0827 51.1923 22.648C50.9043 23.2133 50.7603 23.992 50.7603 24.984ZM62.1918 29.24C61.5838 29.24 61.0131 29.1333 60.4798 28.92C59.9571 28.7067 59.5038 28.4133 59.1198 28.04C58.7358 27.6667 58.4318 27.2187 58.2078 26.696C57.9838 26.1733 57.8717 25.6027 57.8717 24.984C57.8717 24.3653 57.9838 23.8 58.2078 23.288C58.4318 22.7653 58.7358 22.3173 59.1198 21.944C59.5038 21.5707 59.9571 21.2827 60.4798 21.08C61.0131 20.8667 61.5838 20.76 62.1918 20.76C62.7998 20.76 63.3651 20.8667 63.8878 21.08C64.4104 21.2827 64.8638 21.5707 65.2478 21.944C65.6424 22.3173 65.9464 22.7653 66.1597 23.288C66.3838 23.8 66.4958 24.3653 66.4958 24.984C66.4958 25.592 66.3838 26.1573 66.1597 26.68C65.9464 27.2027 65.6424 27.656 65.2478 28.04C64.8638 28.4133 64.4104 28.7067 63.8878 28.92C63.3651 29.1333 62.7998 29.24 62.1918 29.24ZM60.4478 24.984C60.4478 25.9867 60.5918 26.776 60.8798 27.352C61.1784 27.9173 61.6158 28.2 62.1918 28.2C62.7678 28.2 63.1998 27.9173 63.4878 27.352C63.7864 26.776 63.9358 25.9867 63.9358 24.984C63.9358 23.992 63.7864 23.2133 63.4878 22.648C63.1998 22.0827 62.7678 21.8 62.1918 21.8C61.6158 21.8 61.1784 22.0827 60.8798 22.648C60.5918 23.2133 60.4478 23.992 60.4478 24.984ZM67.1593 31.432C67.1593 30.5787 67.6339 29.9013 68.5833 29.4C68.2953 29.1973 68.0659 28.936 67.8953 28.616C67.8313 28.488 67.7779 28.3387 67.7353 28.168C67.7033 27.9973 67.6979 27.8213 67.7193 27.64L69.5593 26.056C69.0046 25.8107 68.5726 25.48 68.2633 25.064C67.9539 24.6373 67.7993 24.168 67.7993 23.656C67.7993 22.888 68.1619 22.2373 68.8873 21.704C69.6126 21.16 70.5299 20.888 71.6393 20.888C72.5993 20.888 73.4313 21.1013 74.1353 21.528L76.6313 20.6C76.7593 20.856 76.8233 21.1387 76.8233 21.448C76.8233 21.8107 76.8019 22.0827 76.7593 22.264H74.9993C75.3406 22.712 75.5113 23.176 75.5113 23.656C75.5113 24.4453 75.1593 25.1067 74.4553 25.64C73.7619 26.1627 72.8233 26.424 71.6393 26.424C71.2553 26.424 70.9726 26.4187 70.7913 26.408L70.0873 27.384C70.2153 27.5973 70.3913 27.7307 70.6153 27.784C70.8393 27.8267 71.2179 27.848 71.7513 27.848H72.9193C73.9753 27.848 74.7859 28.0827 75.3513 28.552C75.9273 29.0213 76.2153 29.6773 76.2153 30.52C76.2153 31.3413 75.8153 32.056 75.0153 32.664C74.2259 33.2827 73.1166 33.592 71.6873 33.592C68.6686 33.592 67.1593 32.872 67.1593 31.432ZM69.5913 31.08C69.5913 32.0613 70.2739 32.552 71.6393 32.552C72.5353 32.552 73.2233 32.4027 73.7033 32.104C74.1833 31.8053 74.4233 31.432 74.4233 30.984C74.4233 30.6427 74.2846 30.3813 74.0073 30.2C73.7299 30.0293 73.2233 29.944 72.4873 29.944H69.9433C69.7086 30.2747 69.5913 30.6533 69.5913 31.08ZM71.6393 25.4C72.1619 25.4 72.5513 25.24 72.8073 24.92C73.0633 24.5893 73.1913 24.168 73.1913 23.656C73.1913 23.144 73.0633 22.7227 72.8073 22.392C72.5513 22.0507 72.1619 21.88 71.6393 21.88C71.0953 21.88 70.7059 22.0507 70.4713 22.392C70.2366 22.7227 70.1193 23.144 70.1193 23.656C70.1193 24.168 70.2366 24.5893 70.4713 24.92C70.7059 25.24 71.0953 25.4 71.6393 25.4ZM77.0525 29V28.152L78.4125 27.832V17.656H77.0525V16.808L79.6125 16.2H80.8765V27.832L82.2365 28.152V29H77.0525ZM82.935 24.904C82.935 23.6453 83.287 22.6427 83.991 21.896C84.7057 21.1387 85.671 20.76 86.887 20.76C88.1243 20.76 89.0577 21.1813 89.687 22.024C90.327 22.8667 90.647 23.9067 90.647 25.144H85.399C85.4737 25.9333 85.7563 26.616 86.247 27.192C86.7377 27.7573 87.367 28.04 88.135 28.04C88.711 28.04 89.3297 27.9173 89.991 27.672L90.327 28.584C89.335 29.0213 88.3643 29.24 87.415 29.24C86.039 29.24 84.9457 28.84 84.135 28.04C83.335 27.2293 82.935 26.184 82.935 24.904ZM85.399 24.152L88.103 23.976C88.103 23.72 88.087 23.4853 88.055 23.272C88.023 23.048 87.9323 22.7813 87.783 22.472C87.5163 22.024 87.2017 21.8 86.839 21.8C86.4123 21.8 86.0603 22.0187 85.783 22.456C85.623 22.7227 85.5163 23.016 85.463 23.336C85.4097 23.656 85.3883 23.928 85.399 24.152ZM95.1842 29V28.104L96.6562 27.752V19.048L95.1842 18.696V17.8H99.7123C101.259 17.8 102.459 18.072 103.312 18.616C104.166 19.1493 104.592 20.0453 104.592 21.304C104.592 21.944 104.454 22.504 104.176 22.984C103.91 23.4533 103.542 23.8267 103.072 24.104C102.603 24.3707 102.086 24.5733 101.52 24.712C100.955 24.84 100.342 24.904 99.6803 24.904H99.2643V27.752L101.216 28.104V29H95.1842ZM99.2643 23.736H99.6003C100.251 23.736 100.8 23.5333 101.248 23.128C101.707 22.712 101.936 22.104 101.936 21.304C101.936 20.536 101.723 19.9547 101.296 19.56C100.88 19.1653 100.352 18.968 99.7123 18.968H99.2643V23.736ZM104.943 29V28.152L106.303 27.832V17.656H104.943V16.808L107.503 16.2H108.767V27.832L110.127 28.152V29H104.943ZM110.839 27.016C110.839 26.088 111.218 25.384 111.975 24.904C112.743 24.4133 113.981 24.168 115.687 24.168V23.688C115.687 23.368 115.682 23.1387 115.671 23C115.671 22.8507 115.65 22.6747 115.607 22.472C115.565 22.2693 115.501 22.1253 115.415 22.04C115.341 21.9547 115.223 21.88 115.063 21.816C114.903 21.7413 114.706 21.704 114.471 21.704L112.439 23.464C111.714 23.048 111.351 22.4027 111.351 21.528L111.831 21.32C112.034 21.2347 112.429 21.1227 113.015 20.984C113.602 20.8347 114.173 20.76 114.727 20.76C117.021 20.76 118.167 21.6773 118.167 23.512V27.8H119.415V28.488C119.362 28.5413 119.287 28.6107 119.191 28.696C119.095 28.7813 118.887 28.8933 118.567 29.032C118.247 29.1707 117.917 29.24 117.575 29.24C116.765 29.24 116.162 28.968 115.767 28.424C115.053 28.968 114.274 29.24 113.431 29.24C112.695 29.24 112.077 29.0533 111.575 28.68C111.085 28.3067 110.839 27.752 110.839 27.016ZM113.415 26.872C113.415 27.1813 113.517 27.4267 113.719 27.608C113.933 27.7893 114.189 27.88 114.487 27.88C114.967 27.88 115.367 27.704 115.687 27.352V25.16C115.09 25.16 114.562 25.32 114.103 25.64C113.645 25.9493 113.415 26.36 113.415 26.872ZM119.154 21.848V21H124.098V21.848L123.042 22.04L125.106 26.152L126.61 22.152L125.394 21.848V21H129.106V21.848L127.778 22.216L123.314 33.784H123.026C122.706 33.784 122.402 33.7147 122.114 33.576C121.837 33.4373 121.64 33.2667 121.522 33.064L123.842 29.368L120.354 22.184L119.154 21.848Z" fill="white"/>
<path d="M39.6084 6.99121H42.4404V10.6924C41.9814 10.8421 41.5485 10.9463 41.1416 11.0049C40.738 11.0667 40.3245 11.0977 39.9014 11.0977C38.8239 11.0977 38.0003 10.7819 37.4307 10.1504C36.8643 9.51562 36.5811 8.60579 36.5811 7.4209C36.5811 6.26855 36.9098 5.37012 37.5674 4.72559C38.2282 4.08105 39.1429 3.75879 40.3115 3.75879C41.0439 3.75879 41.7503 3.90527 42.4307 4.19824L41.9277 5.40918C41.4069 5.14876 40.8649 5.01855 40.3018 5.01855C39.6475 5.01855 39.1234 5.23828 38.7295 5.67773C38.3356 6.11719 38.1387 6.70801 38.1387 7.4502C38.1387 8.22493 38.2965 8.81738 38.6123 9.22754C38.9313 9.63444 39.3936 9.83789 39.999 9.83789C40.3148 9.83789 40.6354 9.80534 40.9609 9.74023V8.25098H39.6084V6.99121ZM48.2559 11H44.1445V3.86133H48.2559V5.10156H45.6582V6.66895H48.0752V7.90918H45.6582V9.75H48.2559V11ZM52.5039 11H50.9902V5.12109H49.0518V3.86133H54.4424V5.12109H52.5039V11ZM58.1387 11V3.86133H59.6523V11H58.1387ZM64.2031 11H62.6895V5.12109H60.751V3.86133H66.1416V5.12109H64.2031V11ZM76.3174 7.4209C76.3174 8.60254 76.0244 9.51074 75.4385 10.1455C74.8525 10.7803 74.0127 11.0977 72.9189 11.0977C71.8252 11.0977 70.9854 10.7803 70.3994 10.1455C69.8135 9.51074 69.5205 8.59928 69.5205 7.41113C69.5205 6.22298 69.8135 5.31641 70.3994 4.69141C70.9886 4.06315 71.8317 3.74902 72.9287 3.74902C74.0257 3.74902 74.8639 4.06478 75.4434 4.69629C76.026 5.3278 76.3174 6.236 76.3174 7.4209ZM71.1074 7.4209C71.1074 8.21842 71.2588 8.81901 71.5615 9.22266C71.8643 9.6263 72.3167 9.82812 72.9189 9.82812C74.1266 9.82812 74.7305 9.02572 74.7305 7.4209C74.7305 5.81283 74.1299 5.00879 72.9287 5.00879C72.3265 5.00879 71.8724 5.21224 71.5664 5.61914C71.2604 6.02279 71.1074 6.62337 71.1074 7.4209ZM84.1299 11H82.2061L79.1006 5.59961H79.0566C79.1185 6.55339 79.1494 7.23372 79.1494 7.64062V11H77.7969V3.86133H79.7061L82.8066 9.20801H82.8408C82.792 8.28027 82.7676 7.62435 82.7676 7.24023V3.86133H84.1299V11Z" fill="white"/>
<path d="M0.567005 4.00004C0.548645 3.99981 0.530286 4.00052 0.511998 4.00216C0.373918 4.00973 0.243964 4.06983 0.14877 4.17014C0.0535765 4.27045 0.000352434 4.40337 6.12043e-06 4.54165V29.4558C-0.000451772 29.5521 0.0247905 29.6468 0.073131 29.7301C0.121471 29.8135 0.191161 29.8824 0.275015 29.9298C0.358869 29.9772 0.453854 30.0014 0.550177 29.9999C0.646501 29.9984 0.740679 29.9712 0.823001 29.9212L2.92386 28.6497C2.96627 28.6309 3.00609 28.6067 3.04234 28.5778L21.4042 17.4642C21.4844 17.416 21.5507 17.3479 21.5968 17.2666C21.6429 17.1852 21.6671 17.0933 21.6671 16.9998C21.6671 16.9063 21.6429 16.8143 21.5968 16.733C21.5507 16.6516 21.4844 16.5835 21.4042 16.5354L3.0508 5.42812C3.0473 5.42596 3.04377 5.42385 3.04022 5.42177C3.00172 5.38995 2.959 5.36361 2.91328 5.34349L0.823001 4.07832C0.745562 4.03122 0.657542 4.00431 0.567005 4.00004V4.00004ZM1.08323 5.50217L2.35263 6.27015L11.1834 17.0029L2.36321 27.7209L1.08323 28.4952V5.50217ZM5.14743 7.96269L14.1411 13.4063L11.8837 16.1503L5.14743 7.96269ZM15.0784 13.9733L20.0735 16.9987L15.0741 20.0262L12.5861 17.0029L15.0784 13.9733ZM11.8837 17.8556L14.1369 20.5932L5.16012 26.0284L11.8837 17.8556Z" fill="white"/>
</svg>
