<svg width="127" height="17" viewBox="0 0 127 17" fill="none" xmlns="http://www.w3.org/2000/svg">
<path d="M3.216 4.408H5.52L5.264 5.608C5.79733 5.14933 6.42133 4.92 7.136 4.92C7.73333 4.92 8.208 5.11733 8.56 5.512C8.912 5.90667 9.088 6.552 9.088 7.448C9.088 8.29067 8.96533 9.144 8.72 10.008C8.47467 10.8613 8.05867 11.592 7.472 12.2C6.88533 12.7973 6.112 13.096 5.152 13.096C4.46933 13.096 4.016 12.904 3.792 12.52L2.96 16.424L0.544 17L3.216 4.408ZM4.656 11.704C5.168 11.704 5.58933 11.464 5.92 10.984C6.26133 10.504 6.50667 9.93333 6.656 9.272C6.816 8.6 6.896 7.976 6.896 7.4C6.896 6.51467 6.62933 6.072 6.096 6.072C5.904 6.072 5.70667 6.14133 5.504 6.28C5.312 6.41867 5.14133 6.61067 4.992 6.856L4.048 11.336C4.13333 11.5813 4.336 11.704 4.656 11.704ZM11.3084 13.096C10.7964 13.096 10.3644 13 10.0124 12.808C9.66037 12.6053 9.39904 12.3493 9.22837 12.04C9.05771 11.72 8.97237 11.3893 8.97237 11.048C8.97237 10.696 9.05771 10.392 9.22837 10.136C9.38837 9.86933 9.58571 9.67733 9.82038 9.56C10.2364 8.81333 10.599 8.06133 10.9084 7.304C11.2177 6.536 11.511 5.70933 11.7884 4.824L14.1564 4.504C14.2097 5.86933 14.3004 7.34667 14.4284 8.936C14.4817 9.576 14.5084 10.04 14.5084 10.328C14.5084 10.5733 14.487 10.776 14.4444 10.936C14.9457 10.648 15.3297 10.3813 15.5964 10.136H16.2684C15.5857 10.9253 14.7697 11.592 13.8204 12.136C13.511 12.4667 13.127 12.712 12.6684 12.872C12.2204 13.0213 11.767 13.096 11.3084 13.096ZM10.7964 11.832C11.191 11.832 11.5217 11.7147 11.7884 11.48C12.055 11.2453 12.1884 10.8667 12.1884 10.344C12.1884 10.024 12.1564 9.576 12.0924 9C11.9857 7.784 11.9164 6.968 11.8844 6.552C11.6284 7.39467 11.1964 8.40267 10.5884 9.576C10.8337 9.704 10.9564 9.89067 10.9564 10.136C10.9564 10.3387 10.887 10.52 10.7484 10.68C10.6204 10.84 10.455 10.92 10.2524 10.92C10.0284 10.92 9.88438 10.8507 9.82038 10.712C9.82038 11.096 9.89504 11.3787 10.0444 11.56C10.2044 11.7413 10.455 11.832 10.7964 11.832ZM17.4178 13.096C16.9058 13.096 16.4737 13 16.1217 12.808C15.7697 12.6053 15.5084 12.3493 15.3377 12.04C15.1671 11.72 15.0817 11.3893 15.0817 11.048C15.0817 10.696 15.1671 10.392 15.3377 10.136C15.4977 9.86933 15.6951 9.67733 15.9298 9.56C16.3458 8.81333 16.7084 8.06133 17.0178 7.304C17.3271 6.536 17.6204 5.70933 17.8978 4.824L20.2658 4.504C20.3191 5.86933 20.4098 7.34667 20.5378 8.936C20.5911 9.576 20.6178 10.04 20.6178 10.328C20.6178 10.5733 20.5964 10.776 20.5538 10.936C21.0551 10.648 21.4391 10.3813 21.7058 10.136H22.3778C21.6951 10.9253 20.8791 11.592 19.9298 12.136C19.6204 12.4667 19.2364 12.712 18.7778 12.872C18.3298 13.0213 17.8764 13.096 17.4178 13.096ZM16.9058 11.832C17.3004 11.832 17.6311 11.7147 17.8978 11.48C18.1644 11.2453 18.2978 10.8667 18.2978 10.344C18.2978 10.024 18.2658 9.576 18.2018 9C18.0951 7.784 18.0258 6.968 17.9938 6.552C17.7378 7.39467 17.3058 8.40267 16.6978 9.576C16.9431 9.704 17.0658 9.89067 17.0658 10.136C17.0658 10.3387 16.9964 10.52 16.8578 10.68C16.7298 10.84 16.5644 10.92 16.3618 10.92C16.1378 10.92 15.9938 10.8507 15.9298 10.712C15.9298 11.096 16.0044 11.3787 16.1538 11.56C16.3138 11.7413 16.5644 11.832 16.9058 11.832ZM23.5271 13.096C23.0151 13.096 22.5831 13 22.2311 12.808C21.8791 12.6053 21.6178 12.3493 21.4471 12.04C21.2765 11.72 21.1911 11.3893 21.1911 11.048C21.1911 10.696 21.2765 10.392 21.4471 10.136C21.6071 9.86933 21.8045 9.67733 22.0391 9.56C22.4551 8.81333 22.8178 8.06133 23.1271 7.304C23.4365 6.536 23.7298 5.70933 24.0071 4.824L26.3751 4.504C26.4285 5.86933 26.5191 7.34667 26.6471 8.936C26.7005 9.576 26.7271 10.04 26.7271 10.328C26.7271 10.5733 26.7058 10.776 26.6631 10.936C27.1645 10.648 27.5485 10.3813 27.8151 10.136H28.4871C27.8045 10.9253 26.9885 11.592 26.0391 12.136C25.7298 12.4667 25.3458 12.712 24.8871 12.872C24.4391 13.0213 23.9858 13.096 23.5271 13.096ZM23.0151 11.832C23.4098 11.832 23.7405 11.7147 24.0071 11.48C24.2738 11.2453 24.4071 10.8667 24.4071 10.344C24.4071 10.024 24.3751 9.576 24.3111 9C24.2045 7.784 24.1351 6.968 24.1031 6.552C23.8471 7.39467 23.4151 8.40267 22.8071 9.576C23.0525 9.704 23.1751 9.89067 23.1751 10.136C23.1751 10.3387 23.1058 10.52 22.9671 10.68C22.8391 10.84 22.6738 10.92 22.4711 10.92C22.2471 10.92 22.1031 10.8507 22.0391 10.712C22.0391 11.096 22.1138 11.3787 22.2631 11.56C22.4231 11.7413 22.6738 11.832 23.0151 11.832ZM29.3165 13.096C28.7725 13.096 28.3672 12.9307 28.1005 12.6C27.8445 12.2693 27.7165 11.832 27.7165 11.288C27.7165 11.0107 27.7485 10.728 27.8125 10.44L28.8365 5.64H28.3085L28.4365 5H28.9645L29.4445 2.792L31.8125 2.472C31.7165 2.87733 31.6632 3.11733 31.6525 3.192C31.5778 3.49067 31.4498 4.09333 31.2685 5H32.2285L32.1005 5.64H31.1405L30.1165 10.44C30.0632 10.6747 30.0365 10.8613 30.0365 11C30.0365 11.384 30.2232 11.576 30.5965 11.576C30.7885 11.576 30.9272 11.56 31.0125 11.528C30.7992 12.1467 30.5485 12.5627 30.2605 12.776C29.9725 12.9893 29.6578 13.096 29.3165 13.096ZM33.9944 13.064C33.6424 13.064 33.3437 12.9413 33.0984 12.696C32.853 12.4507 32.7304 12.152 32.7304 11.8C32.7304 11.448 32.853 11.1493 33.0984 10.904C33.3437 10.648 33.6424 10.52 33.9944 10.52C34.3464 10.52 34.645 10.648 34.8904 10.904C35.1464 11.1493 35.2744 11.448 35.2744 11.8C35.2744 12.152 35.1464 12.4507 34.8904 12.696C34.645 12.9413 34.3464 13.064 33.9944 13.064ZM38.1975 13.064C37.8455 13.064 37.5468 12.9413 37.3015 12.696C37.0562 12.4507 36.9335 12.152 36.9335 11.8C36.9335 11.448 37.0562 11.1493 37.3015 10.904C37.5468 10.648 37.8455 10.52 38.1975 10.52C38.5495 10.52 38.8482 10.648 39.0935 10.904C39.3495 11.1493 39.4775 11.448 39.4775 11.8C39.4775 12.152 39.3495 12.4507 39.0935 12.696C38.8482 12.9413 38.5495 13.064 38.1975 13.064ZM42.4006 13.064C42.0486 13.064 41.75 12.9413 41.5046 12.696C41.2593 12.4507 41.1366 12.152 41.1366 11.8C41.1366 11.448 41.2593 11.1493 41.5046 10.904C41.75 10.648 42.0486 10.52 42.4006 10.52C42.7526 10.52 43.0513 10.648 43.2966 10.904C43.5526 11.1493 43.6806 11.448 43.6806 11.8C43.6806 12.152 43.5526 12.4507 43.2966 12.696C43.0513 12.9413 42.7526 13.064 42.4006 13.064ZM51.1445 17C50.6325 17 50.2058 16.8667 49.8645 16.6C49.5232 16.3333 49.3525 15.9493 49.3525 15.448C49.3525 14.84 49.5978 14.3493 50.0885 13.976C50.5792 13.6133 51.2032 13.3093 51.9605 13.064L52.1525 12.216C51.6085 12.8027 50.9685 13.096 50.2325 13.096C49.6245 13.096 49.1178 12.888 48.7125 12.472C48.3072 12.056 48.1045 11.4053 48.1045 10.52C48.1045 9.73067 48.2592 8.904 48.5685 8.04C48.8885 7.16533 49.3578 6.42933 49.9765 5.832C50.6058 5.224 51.3525 4.92 52.2165 4.92C52.6538 4.92 52.9792 4.99467 53.1925 5.144C53.4058 5.29333 53.5125 5.49067 53.5125 5.736V5.832L53.6885 5H55.9925L54.4085 12.424C54.9205 12.2533 55.3312 11.9973 55.6405 11.656C55.9498 11.3147 56.2112 10.808 56.4245 10.136H57.0965C56.8085 11.0853 56.4192 11.784 55.9285 12.232C55.4378 12.6693 54.8832 12.968 54.2645 13.128L54.0245 14.28C53.8112 15.3147 53.4432 16.024 52.9205 16.408C52.3978 16.8027 51.8058 17 51.1445 17ZM51.2725 11.544C51.5178 11.544 51.7685 11.432 52.0245 11.208C52.2805 10.984 52.4565 10.68 52.5525 10.296L53.3685 6.504C53.3685 6.376 53.3152 6.248 53.2085 6.12C53.1018 5.98133 52.9365 5.912 52.7125 5.912C52.2858 5.912 51.9018 6.16267 51.5605 6.664C51.2192 7.15467 50.9525 7.752 50.7605 8.456C50.5685 9.14933 50.4725 9.76267 50.4725 10.296C50.4725 10.8293 50.5472 11.1707 50.6965 11.32C50.8565 11.4693 51.0485 11.544 51.2725 11.544ZM50.7765 15.752C50.9578 15.752 51.1338 15.6293 51.3045 15.384C51.4752 15.1387 51.6085 14.7867 51.7045 14.328L51.8005 13.864C50.7552 14.248 50.2325 14.7013 50.2325 15.224C50.2325 15.3627 50.2805 15.4853 50.3765 15.592C50.4725 15.6987 50.6058 15.752 50.7765 15.752ZM58.7099 13.096C57.9205 13.096 57.3072 12.8933 56.8699 12.488C56.4325 12.072 56.2139 11.4267 56.2139 10.552C56.2139 9.816 56.3579 9.00533 56.6459 8.12C56.9339 7.23467 57.4032 6.472 58.0539 5.832C58.7045 5.18133 59.5312 4.856 60.5339 4.856C61.7072 4.856 62.2939 5.368 62.2939 6.392C62.2939 6.98933 62.1232 7.53867 61.7819 8.04C61.4405 8.54133 60.9872 8.94667 60.4219 9.256C59.8565 9.55467 59.2539 9.72533 58.6139 9.768C58.5925 10.088 58.5819 10.3013 58.5819 10.408C58.5819 10.9307 58.6725 11.288 58.8539 11.48C59.0352 11.6613 59.3285 11.752 59.7339 11.752C60.3099 11.752 60.8005 11.6187 61.2059 11.352C61.6219 11.0853 62.0752 10.68 62.5659 10.136H63.1099C61.9259 12.1093 60.4592 13.096 58.7099 13.096ZM58.7419 9C59.1365 8.97867 59.5099 8.84 59.8619 8.584C60.2245 8.328 60.5125 8.00267 60.7259 7.608C60.9499 7.21333 61.0619 6.79733 61.0619 6.36C61.0619 5.92267 60.9285 5.704 60.6619 5.704C60.2779 5.704 59.8992 6.04 59.5259 6.712C59.1632 7.384 58.9019 8.14667 58.7419 9ZM64.0665 13.096C63.5225 13.096 63.1172 12.9307 62.8505 12.6C62.5945 12.2693 62.4665 11.832 62.4665 11.288C62.4665 11.0107 62.4985 10.728 62.5625 10.44L63.5865 5.64H63.0585L63.1865 5H63.7145L64.1945 2.792L66.5625 2.472C66.4665 2.87733 66.4132 3.11733 66.4025 3.192C66.3278 3.49067 66.1998 4.09333 66.0185 5H66.9785L66.8505 5.64H65.8905L64.8665 10.44C64.8132 10.6747 64.7865 10.8613 64.7865 11C64.7865 11.384 64.9732 11.576 65.3465 11.576C65.5385 11.576 65.6772 11.56 65.7625 11.528C65.5492 12.1467 65.2985 12.5627 65.0105 12.776C64.7225 12.9893 64.4078 13.096 64.0665 13.096ZM72.0371 13.096C71.5251 13.096 71.1091 12.936 70.7891 12.616C70.4798 12.296 70.3251 11.816 70.3251 11.176C70.3251 10.9093 70.3678 10.5627 70.4531 10.136L71.4131 5.64H70.8851L71.0131 5H71.5411L72.0211 2.792L74.3891 2.472L73.8451 5H74.8051L74.6771 5.64H73.7171L72.6931 10.44C72.6505 10.6 72.6291 10.7707 72.6291 10.952C72.6291 11.1653 72.6771 11.32 72.7731 11.416C72.8798 11.5013 73.0505 11.544 73.2851 11.544C73.5945 11.544 73.8825 11.416 74.1491 11.16C74.4158 10.8933 74.6078 10.552 74.7251 10.136H75.3971C75.0025 11.288 74.4958 12.072 73.8771 12.488C73.2585 12.8933 72.6451 13.096 72.0371 13.096ZM80.4948 13.096C79.8441 13.096 79.3641 12.9253 79.0548 12.584C78.7561 12.232 78.6068 11.8 78.6068 11.288C78.6068 11.064 78.6334 10.8133 78.6868 10.536C78.7401 10.248 78.7934 9.97067 78.8468 9.704C78.9108 9.43733 78.9534 9.26667 78.9748 9.192C79.0601 8.81867 79.1401 8.45067 79.2148 8.088C79.2894 7.72533 79.3268 7.432 79.3268 7.208C79.3268 6.664 79.1348 6.392 78.7508 6.392C78.4734 6.392 78.2281 6.53067 78.0148 6.808C77.8014 7.07467 77.6308 7.42667 77.5028 7.864L76.4148 13H74.1107L76.4308 2.12L78.7988 1.8L77.9348 5.832C78.4681 5.23467 79.0921 4.936 79.8068 4.936C80.3508 4.936 80.7828 5.08533 81.1028 5.384C81.4228 5.68267 81.5828 6.136 81.5828 6.744C81.5828 7.05333 81.5454 7.4 81.4708 7.784C81.3961 8.15733 81.2894 8.616 81.1508 9.16C81.0654 9.49067 80.9854 9.816 80.9108 10.136C80.8468 10.4453 80.8148 10.6907 80.8148 10.872C80.8148 11.0853 80.8628 11.2507 80.9588 11.368C81.0548 11.4853 81.2201 11.544 81.4548 11.544C81.7748 11.544 82.0308 11.432 82.2228 11.208C82.4148 10.9733 82.6068 10.616 82.7987 10.136H83.4708C83.0761 11.3093 82.6174 12.0987 82.0948 12.504C81.5828 12.8987 81.0494 13.096 80.4948 13.096ZM85.0529 13.096C84.2742 13.096 83.6662 12.8933 83.2289 12.488C82.7915 12.072 82.5729 11.4267 82.5729 10.552C82.5729 9.816 82.7169 9.00533 83.0049 8.12C83.2929 7.23467 83.7622 6.472 84.4129 5.832C85.0635 5.18133 85.8902 4.856 86.8929 4.856C88.0662 4.856 88.6529 5.368 88.6529 6.392C88.6529 6.98933 88.4822 7.53867 88.1409 8.04C87.7995 8.54133 87.3462 8.94667 86.7809 9.256C86.2155 9.55467 85.6129 9.72533 84.9729 9.768C84.9515 10.0027 84.9409 10.1627 84.9409 10.248C84.9409 11.1333 85.2715 11.576 85.9329 11.576C86.2315 11.576 86.5515 11.496 86.8929 11.336C87.2342 11.176 87.5435 10.9733 87.8209 10.728C87.5329 12.3067 86.6102 13.096 85.0529 13.096ZM85.0849 9C85.4902 8.98933 85.8689 8.856 86.2209 8.6C86.5835 8.344 86.8715 8.01867 87.0849 7.624C87.3089 7.21867 87.4209 6.79733 87.4209 6.36C87.4209 5.92267 87.2875 5.704 87.0209 5.704C86.6475 5.704 86.2742 6.04533 85.9009 6.728C85.5382 7.4 85.2662 8.15733 85.0849 9ZM94.253 13.096C93.5277 13.096 92.973 12.92 92.589 12.568C92.205 12.2053 92.013 11.6987 92.013 11.048C92.013 10.728 92.0503 10.424 92.125 10.136L93.837 2.12L96.205 1.8L95.437 5.4C95.7357 5.21867 95.981 5.10133 96.173 5.048C96.365 4.984 96.557 4.952 96.749 4.952C98.0077 4.952 98.637 5.864 98.637 7.688C98.637 8.424 98.493 9.21333 98.205 10.056C97.9277 10.888 97.4583 11.6027 96.797 12.2C96.1463 12.7973 95.2983 13.096 94.253 13.096ZM95.149 11.544C95.4797 11.544 95.789 11.3413 96.077 10.936C96.365 10.52 96.5943 10.008 96.765 9.4C96.9357 8.78133 97.021 8.18933 97.021 7.624C97.021 7.19733 96.9463 6.83467 96.797 6.536C96.6477 6.23733 96.4397 6.088 96.173 6.088C96.013 6.088 95.8317 6.11467 95.629 6.168C95.437 6.21067 95.3037 6.28 95.229 6.376L94.349 10.44C94.317 10.568 94.301 10.6907 94.301 10.808C94.301 11.2987 94.5837 11.544 95.149 11.544ZM101.57 13.064C100.781 13.064 100.157 12.8613 99.6984 12.456C99.2397 12.0507 99.0104 11.4107 99.0104 10.536C99.0104 9.81067 99.1597 9.00533 99.4584 8.12C99.757 7.23467 100.237 6.472 100.898 5.832C101.56 5.18133 102.392 4.856 103.394 4.856C104.76 4.856 105.442 5.70933 105.442 7.416V7.432C105.474 7.44267 105.533 7.448 105.618 7.448C105.97 7.448 106.376 7.35733 106.834 7.176C107.293 6.984 107.709 6.75467 108.082 6.488L108.226 6.92C107.917 7.25067 107.512 7.53333 107.01 7.768C106.52 7.992 105.981 8.152 105.394 8.248C105.309 9.21867 105.09 10.0667 104.738 10.792C104.386 11.5173 103.933 12.0773 103.378 12.472C102.824 12.8667 102.221 13.064 101.57 13.064ZM102.21 11.624C102.466 11.624 102.722 11.48 102.978 11.192C103.234 10.8933 103.458 10.4933 103.65 9.992C103.842 9.48 103.981 8.91467 104.066 8.296C103.778 8.232 103.634 8.008 103.634 7.624C103.634 7.18667 103.8 6.89867 104.13 6.76C104.109 6.408 104.056 6.168 103.97 6.04C103.885 5.90133 103.736 5.832 103.522 5.832C103.17 5.832 102.829 6.088 102.498 6.6C102.168 7.112 101.901 7.72533 101.698 8.44C101.496 9.15467 101.394 9.784 101.394 10.328C101.394 10.84 101.453 11.1867 101.57 11.368C101.688 11.5387 101.901 11.624 102.21 11.624ZM108.602 13.064C107.812 13.064 107.188 12.8613 106.73 12.456C106.271 12.0507 106.042 11.4107 106.042 10.536C106.042 9.81067 106.191 9.00533 106.49 8.12C106.788 7.23467 107.268 6.472 107.93 5.832C108.591 5.18133 109.423 4.856 110.426 4.856C111.791 4.856 112.474 5.70933 112.474 7.416V7.432C112.506 7.44267 112.564 7.448 112.65 7.448C113.002 7.448 113.407 7.35733 113.866 7.176C114.324 6.984 114.74 6.75467 115.114 6.488L115.258 6.92C114.948 7.25067 114.543 7.53333 114.042 7.768C113.551 7.992 113.012 8.152 112.426 8.248C112.34 9.21867 112.122 10.0667 111.77 10.792C111.418 11.5173 110.964 12.0773 110.41 12.472C109.855 12.8667 109.252 13.064 108.602 13.064ZM109.242 11.624C109.498 11.624 109.754 11.48 110.01 11.192C110.266 10.8933 110.49 10.4933 110.682 9.992C110.874 9.48 111.012 8.91467 111.098 8.296C110.81 8.232 110.666 8.008 110.666 7.624C110.666 7.18667 110.831 6.89867 111.162 6.76C111.14 6.408 111.087 6.168 111.002 6.04C110.916 5.90133 110.767 5.832 110.554 5.832C110.202 5.832 109.86 6.088 109.53 6.6C109.199 7.112 108.932 7.72533 108.73 8.44C108.527 9.15467 108.426 9.784 108.426 10.328C108.426 10.84 108.484 11.1867 108.602 11.368C108.719 11.5387 108.932 11.624 109.242 11.624ZM119.313 13.096C118.652 13.096 118.15 12.9413 117.809 12.632C117.468 12.312 117.297 11.8587 117.297 11.272C117.297 11.016 117.329 10.7387 117.393 10.44L117.521 9.816C117.564 9.63467 117.585 9.43733 117.585 9.224C117.585 8.712 117.393 8.456 117.009 8.456C116.838 8.456 116.657 8.504 116.465 8.6C116.284 8.696 116.07 8.84533 115.825 9.048L114.993 13H112.689L115.009 2.12L117.377 1.8L116.177 7.432L119.265 5H120.849L117.649 7.224C117.809 7.18133 117.985 7.16 118.177 7.16C118.753 7.16 119.19 7.336 119.489 7.688C119.788 8.04 119.937 8.488 119.937 9.032C119.937 9.256 119.916 9.45867 119.873 9.64L119.697 10.44C119.644 10.632 119.617 10.8027 119.617 10.952C119.617 11.3467 119.825 11.544 120.241 11.544C120.476 11.544 120.625 11.528 120.689 11.496C120.753 11.464 120.79 11.448 120.801 11.448C120.78 11.8 120.678 12.0987 120.497 12.344C120.326 12.5893 120.124 12.776 119.889 12.904C119.665 13.032 119.473 13.096 119.313 13.096ZM123.628 1.304L126.092 0.967999L123.772 9.304H122.412L123.628 1.304ZM122.636 13.096C122.284 13.096 121.98 12.9733 121.724 12.728C121.478 12.472 121.356 12.168 121.356 11.816C121.356 11.464 121.478 11.1653 121.724 10.92C121.98 10.6747 122.284 10.552 122.636 10.552C122.988 10.552 123.286 10.6747 123.532 10.92C123.777 11.1653 123.9 11.464 123.9 11.816C123.9 12.168 123.777 12.472 123.532 12.728C123.286 12.9733 122.988 13.096 122.636 13.096Z" fill="#333333"/>
</svg>
