<?xml version="1.0" standalone="no"?>
<!DOCTYPE svg PUBLIC "-//W3C//DTD SVG 20010904//EN"
 "http://www.w3.org/TR/2001/REC-SVG-20010904/DTD/svg10.dtd">
<svg version="1.0" xmlns="http://www.w3.org/2000/svg"
 width="700.000000pt" height="700.000000pt" viewBox="0 0 700.000000 700.000000"
 preserveAspectRatio="xMidYMid meet">
<metadata>
Created by potrace 1.11, written by Peter Selinger 2001-2013
</metadata>
<g transform="translate(0.000000,700.000000) scale(0.100000,-0.100000)"
fill="#212121" stroke="none">
<path d="M3455 6243 c-117 -16 -211 -75 -271 -169 -30 -47 -44 -58 -116 -92
-169 -79 -332 -283 -383 -479 -22 -85 -19 -263 11 -511 26 -222 33 -405 20
-547 l-8 -81 -101 -52 c-249 -127 -576 -364 -891 -646 -164 -147 -296 -337
-327 -471 -18 -80 -13 -201 11 -278 44 -143 155 -214 394 -252 106 -17 345
-35 464 -35 59 0 82 -4 82 -12 0 -7 -7 -88 -17 -179 l-17 -166 -120 -6 c-276
-13 -476 -114 -552 -279 -40 -88 -39 -196 1 -317 88 -260 279 -370 675 -390
l125 -6 5 -255 5 -255 1135 -7 c734 -4 1139 -3 1146 3 9 7 12 69 13 209 0 110
3 210 6 222 5 21 18 25 150 46 165 26 281 55 334 82 81 41 201 171 253 275 86
169 77 356 -25 507 -44 67 -113 117 -192 141 -60 18 -285 14 -375 -6 -41 -10
-87 -20 -101 -23 l-26 -6 -7 157 c-4 86 -9 170 -13 185 -5 27 -3 28 53 40 212
42 431 108 553 167 219 105 303 339 216 598 -53 161 -156 284 -370 446 -289
219 -563 372 -883 494 l-84 32 1 159 c4 417 -41 819 -114 1033 -58 171 -164
311 -305 404 -41 27 -74 54 -72 59 2 6 17 31 33 55 30 43 33 73 7 73 -7 0 -39
-6 -71 -14 l-59 -14 26 27 c30 31 33 56 10 65 -28 11 -120 6 -170 -8 l-49 -15
30 24 c17 14 34 25 38 25 5 0 7 10 5 23 -3 23 -24 28 -83 20z m-70 -99 c-27
-40 -33 -82 -12 -90 8 -3 47 11 88 31 40 19 89 35 107 35 l34 0 -31 -35 c-57
-65 -35 -87 65 -63 35 8 64 13 64 11 0 -2 -7 -15 -16 -28 -9 -14 -17 -48 -18
-77 -1 -48 1 -53 22 -56 17 -3 25 2 29 17 3 12 7 21 10 21 18 0 130 -90 185
-149 181 -191 258 -555 258 -1211 0 -277 0 -278 52 -284 59 -7 368 -145 531
-237 213 -121 493 -324 607 -440 174 -178 231 -430 140 -615 -53 -108 -138
-167 -338 -233 -269 -89 -460 -121 -732 -121 -129 0 -211 4 -215 10 -3 6 -1
10 5 10 13 0 40 61 40 90 0 12 -12 33 -27 48 -28 27 -31 39 -35 142 -3 49 -6
56 -37 77 l-34 23 37 15 c21 9 91 27 155 40 65 13 161 36 212 51 108 30 289
111 289 129 0 14 -204 206 -239 224 -19 11 -25 11 -32 0 -5 -8 -7 -18 -5 -24
2 -5 14 -65 27 -133 20 -107 21 -124 9 -132 -17 -10 -233 -63 -324 -79 -65
-12 -154 -49 -201 -85 -17 -13 -67 -33 -111 -44 -44 -12 -102 -30 -127 -41
-26 -11 -47 -16 -47 -10 0 26 65 174 102 230 83 130 173 217 298 287 73 41
220 89 298 98 64 7 73 15 48 49 -13 18 -16 18 -101 1 -105 -20 -216 -62 -305
-113 -93 -54 -237 -200 -294 -298 -55 -94 -107 -225 -108 -269 0 -24 -13 -44
-56 -88 l-55 -57 -51 45 c-62 54 -166 107 -261 130 -61 15 -81 27 -161 93
-104 86 -218 157 -314 195 -73 29 -211 66 -247 66 -13 0 -23 6 -23 15 0 28 23
120 33 133 15 18 -18 51 -37 37 -54 -39 -216 -191 -213 -199 2 -6 28 -12 58
-13 255 -12 474 -87 658 -225 l83 -63 -31 -6 c-55 -11 -81 -53 -62 -101 7 -18
4 -29 -11 -48 -14 -18 -18 -33 -13 -57 3 -18 2 -33 -3 -33 -5 0 -15 -13 -21
-29 -10 -23 -9 -36 4 -67 9 -21 21 -42 28 -46 29 -18 -83 -6 -186 21 -140 36
-237 48 -502 61 -509 24 -661 48 -777 122 -57 36 -82 74 -104 159 -46 180 22
363 212 568 81 86 369 333 530 452 183 136 520 340 536 324 3 -3 12 3 22 14
12 13 20 51 28 142 12 148 5 328 -22 539 -42 323 -38 449 20 576 63 139 174
276 268 331 23 14 73 36 110 49 37 12 62 23 55 23 -17 1 20 65 66 115 27 29
117 85 138 86 1 0 -9 -16 -22 -36z m-899 -2809 c-5 -19 -13 -25 -33 -25 l-27
0 29 30 c32 34 40 32 31 -5z m2217 -33 l48 -49 -38 -16 c-64 -28 -65 -28 -79
43 -7 36 -13 71 -13 78 -1 20 27 0 82 -56z m-559 -351 c16 -26 -10 -39 -118
-60 -103 -19 -242 -56 -290 -76 -31 -13 -10 13 32 39 50 31 141 64 237 86 91
21 131 24 139 11z m-944 -40 c110 -25 209 -62 266 -102 50 -34 53 -50 5 -25
-34 18 -199 59 -309 76 -73 12 -90 24 -78 55 7 19 13 19 116 -4z m948 -75 c2
-10 0 -22 -5 -27 -5 -5 -74 -20 -154 -33 -80 -14 -175 -36 -212 -50 -37 -14
-67 -23 -67 -22 0 2 24 20 54 40 57 38 160 76 271 100 85 18 109 17 113 -8z
m-932 -51 c106 -27 228 -81 259 -115 l19 -21 -47 20 c-45 19 -228 63 -332 79
-45 7 -50 10 -53 35 -3 24 0 27 26 27 16 0 74 -11 128 -25z m984 -71 c0 -18
-7 -24 -32 -28 -18 -3 -73 -13 -123 -21 -104 -17 -190 -38 -240 -60 -20 -8
-33 -10 -29 -4 13 21 98 69 161 90 78 26 234 58 251 52 6 -3 12 -16 12 -29z
m-976 -44 c85 -24 181 -70 221 -105 l30 -26 -32 15 c-46 23 -170 55 -287 75
-118 21 -126 24 -126 53 0 19 4 20 63 14 34 -3 93 -15 131 -26z m496 -50 c-49
-45 -90 -64 -90 -41 0 12 118 89 140 91 2 0 -20 -22 -50 -50z m-1257 -7 c4 -4
-5 -19 -20 -35 -23 -24 -29 -41 -35 -106 -3 -42 -7 -107 -7 -144 -1 -54 -4
-68 -16 -68 -20 0 -20 96 0 240 8 58 15 108 15 113 0 9 54 9 63 0z m1652 -7
c11 -7 34 -18 50 -24 23 -8 -6 -10 -135 -10 -173 0 -175 2 -35 33 79 18 97 18
120 1z m-1397 -17 c35 -6 62 -12 60 -14 -2 -1 -63 -5 -136 -9 l-133 -7 17 27
c17 25 21 26 73 20 31 -4 84 -11 119 -17z m1936 -81 c3 -13 13 -178 22 -368
19 -391 23 -827 10 -1134 l-9 -209 -90 7 c-50 3 -541 6 -1092 6 l-1002 0 -7
418 c-4 229 -11 462 -17 517 -22 240 -20 737 4 761 2 3 209 8 458 11 l454 6
55 -28 c30 -15 77 -45 103 -67 50 -41 77 -44 77 -8 0 11 5 20 11 20 6 0 31 17
56 38 l46 37 436 5 c240 3 446 7 458 8 16 1 24 -4 27 -20z m-1054 2 c12 -6 17
-16 13 -26 -5 -13 -8 -13 -24 2 -31 28 -24 43 11 24z m-1232 -306 c21 -4 22
-9 22 -95 0 -51 6 -164 14 -253 21 -227 27 -386 16 -386 -22 0 -411 92 -467
111 -77 25 -172 85 -240 152 l-53 51 0 66 c0 192 184 332 470 360 72 7 189 4
238 -6z m2905 -24 c29 -11 69 -33 89 -50 71 -59 133 -207 126 -301 -3 -39 -7
-44 -67 -80 -90 -55 -644 -269 -658 -255 -3 2 -9 107 -13 233 -5 125 -12 269
-15 320 l-6 92 52 15 c52 16 179 41 249 50 65 8 190 -4 243 -24z"/>
<path d="M3672 5589 c-29 -5 -95 -25 -146 -44 -112 -42 -157 -44 -263 -11
-122 39 -201 49 -268 37 -113 -21 -186 -89 -220 -205 -17 -58 -19 -174 -5
-228 16 -58 69 -118 135 -154 104 -58 155 -64 515 -64 317 0 322 0 398 26 177
58 273 187 260 349 -16 199 -197 331 -406 294z m203 -76 c22 -12 49 -30 59
-42 l19 -21 -34 7 c-57 13 -181 7 -221 -10 -78 -33 -88 -106 -20 -152 20 -14
68 -37 107 -52 78 -29 195 -101 195 -119 0 -20 -80 -85 -135 -110 -83 -38
-141 -44 -434 -44 -301 0 -373 9 -468 55 -51 25 -103 75 -103 98 0 20 122 97
196 123 136 50 169 82 148 143 -18 52 -166 78 -269 46 -27 -8 -52 -12 -54 -9
-12 12 69 73 111 85 63 17 169 6 282 -30 121 -38 159 -39 244 -4 124 50 182
63 262 60 51 -3 88 -10 115 -24z"/>
<path d="M3355 5358 c-52 -28 -61 -84 -19 -117 58 -46 163 -33 200 24 16 25
16 30 3 54 -8 14 -26 31 -39 38 -31 16 -118 16 -145 1z"/>
<path d="M3190 5275 c-11 -13 -9 -20 10 -41 68 -72 215 -102 327 -66 85 27
153 68 153 92 0 26 -26 26 -68 0 -43 -27 -144 -60 -181 -60 -62 0 -133 22
-177 56 -51 39 -48 38 -64 19z"/>
<path d="M2844 3555 c-11 -27 3 -40 57 -58 137 -43 323 -191 415 -329 25 -38
61 -105 79 -149 40 -98 49 -109 71 -87 15 15 15 21 -5 81 -73 218 -278 431
-505 526 -84 35 -104 38 -112 16z"/>
<path d="M4201 3354 c-144 -72 -301 -284 -211 -284 11 0 29 20 48 53 38 67
125 147 200 183 62 30 73 40 65 60 -9 25 -34 22 -102 -12z"/>
<path d="M2947 3373 c-19 -19 -3 -43 47 -71 85 -49 171 -126 212 -192 24 -39
43 -60 56 -60 82 0 -41 171 -198 276 -78 52 -103 62 -117 47z"/>
<path d="M3464 2146 c-217 -41 -389 -219 -429 -441 -18 -100 -18 -150 0 -250
39 -220 206 -395 420 -440 306 -64 585 108 659 406 20 82 21 233 1 317 -44
184 -193 343 -374 396 -78 23 -194 28 -277 12z m209 -130 c200 -83 253 -573
87 -806 -78 -110 -266 -114 -355 -8 -135 160 -142 570 -12 740 46 60 105 88
184 88 35 0 78 -6 96 -14z"/>
</g>
</svg>
