<svg width="195" height="242" viewBox="0 0 195 242" fill="none" xmlns="http://www.w3.org/2000/svg">
<path d="M143.982 205.905C143.982 205.905 172.883 213.526 183.045 214.162C193.207 214.797 199.56 219.878 190.667 222.419C181.774 224.96 155.414 224.008 151.603 225.913C147.792 227.819 44.8944 227.501 32.1913 224.96C19.4882 222.419 2.65578 222.737 4.5613 217.02C6.46682 211.303 11.8671 212.892 32.1923 210.351C52.5175 207.81 143.982 205.905 143.982 205.905Z" fill="#D8D5D2"/>
<path d="M141.839 105.547C138.98 94.1142 124.411 85.5622 124.411 85.5622C124.176 84.0654 126.676 42.4127 116.665 25.5508C106.652 8.68887 84.9503 5.90872 71.6717 14.2825C67.391 16.9826 62.2851 23.3137 59.3602 30.8253C55.2385 41.4142 61.219 58.6906 60.5082 73.6156C60.3501 76.9426 59.7841 83.2032 59.7841 83.2032C59.7841 83.2032 47.444 98.2968 45.8472 105.07C44.2494 111.844 51.0874 123.172 51.0874 123.172C51.0874 123.172 50.0603 128.062 49.6582 129.842C36.3196 188.913 45.166 182.435 43.6234 202.092C43.6234 202.092 65.4645 213.368 96.1557 213.481C126.847 213.595 147.792 196.376 147.792 196.376C147.792 196.376 148.743 170.083 146.84 159.536C145.199 150.447 143.974 136.554 140.886 122.874C140.887 122.875 144.697 116.98 141.839 105.547Z" fill="#E0803F" stroke="#1E1E1E" stroke-width="1.3" stroke-linecap="round" stroke-linejoin="round"/>
<path d="M178.917 183.039C169.848 169.338 142.254 181.515 129.859 185.73C122.89 188.101 110.063 193.155 98.2498 197.126V225.012C127.843 223.61 164.319 219.558 169.765 215.942C178.228 210.322 187.987 196.74 178.917 183.039Z" fill="#E0803F" stroke="#1E1E1E" stroke-width="1.3" stroke-linecap="round" stroke-linejoin="round"/>
<path d="M176.191 199.517C160.762 207.044 116.734 219.581 117.782 223.109C144.469 221.035 165.657 217.869 169.394 215.388C175.271 211.484 181.123 204.067 181.757 195.923C180.103 197.265 178.28 198.498 176.191 199.517Z" fill="#B5622A"/>
<path d="M131.082 206.253C131.082 206.253 113.541 202.258 89.1624 194.12C80.156 191.114 60.8093 182.105 54.745 179.662C34.3883 171.466 8.00548 178.792 11.3173 196.881C14.6281 214.97 27.0921 218.021 51.2388 218.021C75.3874 218.021 123.293 226.738 130.693 222.38C138.092 218.021 131.082 206.253 131.082 206.253Z" fill="#E0803F" stroke="#1E1E1E" stroke-width="1.3" stroke-linecap="round" stroke-linejoin="round"/>
<path d="M11.9728 196.761C15.1779 214.273 27.1883 217.354 51.2388 217.354C59.9299 217.354 71.6155 218.482 82.0082 219.562C82.2978 217.282 49.5048 211.953 28.5365 206.71C21.6585 204.99 16.0801 201.368 11.8975 195.955C11.9337 196.226 11.9223 196.488 11.9728 196.761Z" fill="#B5622A"/>
<path d="M102.003 15.4706C101.983 13.7871 102.117 12.1521 102.62 11.4071C103.864 9.56636 105.57 7.05489 105.57 7.05489L96.5711 9.19193L101.34 4.22138C101.34 4.22138 98.4414 3.64401 94.939 4.39098C92.8896 4.82924 88.6413 7.22638 88.6413 7.22638C88.6413 7.22638 88.8223 6.05735 89.4511 5.13889C90.7374 3.25338 94.3883 1.00011 94.3883 1.00011C94.3883 1.00011 89.8456 0.949615 85.8049 3.00185C81.7643 5.05314 80.0112 9.04806 80.0112 9.04806L78.5735 11.4566" fill="#E0803F"/>
<path d="M102.003 15.4706C101.983 13.7871 102.117 12.1521 102.62 11.4071C103.864 9.56636 105.57 7.05489 105.57 7.05489L96.5711 9.19193L101.34 4.22138C101.34 4.22138 98.4414 3.64401 94.939 4.39098C92.8896 4.82924 88.6413 7.22638 88.6413 7.22638C88.6413 7.22638 88.8223 6.05735 89.4511 5.13889C90.7374 3.25338 94.3883 1.00011 94.3883 1.00011C94.3883 1.00011 89.8456 0.949615 85.8049 3.00185C81.7643 5.05314 80.0112 9.04806 80.0112 9.04806L78.5735 11.4566" stroke="#1E1E1E" stroke-width="1.3" stroke-linecap="round" stroke-linejoin="round"/>
<path d="M138.788 117.454C138.788 117.454 112.219 117.454 103.869 146.68" stroke="#1E1E1E" stroke-width="1.3" stroke-linecap="round" stroke-linejoin="round"/>
<path d="M127.781 127.324C127.781 127.324 119.051 129.98 115.256 138.71" stroke="#1E1E1E" stroke-width="1.3" stroke-linecap="round" stroke-linejoin="round"/>
<path d="M47.0601 163.565L53.8866 156.039C53.8866 156.039 75.0531 155.239 96.3301 155.639C117.607 156.039 138.774 155.239 138.774 155.239L145.532 162.714C145.532 162.714 145.188 203.7 144.435 211.503C143.51 221.096 143.973 230.688 143.973 230.688L49.1523 230.289C49.1523 230.289 51.0026 195.915 49.6144 185.524C48.6388 178.225 47.0601 163.565 47.0601 163.565Z" fill="#E8C6AA" stroke="#1E1E1E" stroke-width="1.3" stroke-linecap="round" stroke-linejoin="round"/>
<path d="M47.06 163.565C47.06 163.565 73.6467 162.713 96.2957 163.14C118.944 163.565 145.532 162.714 145.532 162.714C145.532 162.714 148.487 210.367 147.501 220.577C146.517 230.787 147.009 241 147.009 241L47.9804 240.574C47.9804 240.574 48.0442 203.984 46.5684 192.921C45.0907 181.859 47.06 163.565 47.06 163.565Z" fill="#E8C6AA" stroke="#1E1E1E" stroke-width="1.3" stroke-linecap="round" stroke-linejoin="round"/>
<path d="M96.33 155.639V163.189" stroke="#1E1E1E" stroke-width="1.3" stroke-linecap="round" stroke-linejoin="round"/>
<path d="M124.292 85.2221C132.179 88.0956 152.549 95.3051 174.441 114.122C187.763 125.574 189.214 145.9 174.917 152.709C164.913 157.473 147.303 161.271 139.665 161.284C131.393 161.298 126.515 161.125 126.515 161.125C126.515 161.125 117.941 160.807 115.718 151.598C113.495 142.388 125.713 139.667 125.713 139.667C125.713 139.667 142.892 137.14 150.514 131.9L141.124 123.174" fill="#E0803F"/>
<path d="M124.292 85.2221C132.179 88.0956 152.549 95.3051 174.441 114.122C187.763 125.574 189.214 145.9 174.917 152.709C164.913 157.473 147.303 161.271 139.665 161.284C131.393 161.298 126.515 161.125 126.515 161.125C126.515 161.125 117.941 160.807 115.718 151.598C113.495 142.388 125.713 139.667 125.713 139.667C125.713 139.667 142.892 137.14 150.514 131.9L141.124 123.174" stroke="#1E1E1E" stroke-width="1.3" stroke-linecap="round" stroke-linejoin="round"/>
<path d="M59.7565 83.7663C55.6634 85.2259 42.5125 92.2087 29.0157 103.324C14.4547 115.316 -4.49088 128.89 2.49665 147.945C7.51769 161.636 43.4653 156.043 61.4095 160.49C67.8521 162.087 71.2544 163.983 77.9237 160.807C84.593 157.632 84.2757 150.327 84.2757 150.327C84.2757 150.327 77.2587 141.276 66.3019 135.559C55.3452 129.843 42.9889 130.319 42.9889 130.319C42.9889 130.319 47.5974 126.86 51.5551 122.695" fill="#E0803F"/>
<path d="M59.7565 83.7663C55.6634 85.2259 42.5125 92.2087 29.0157 103.324C14.4547 115.316 -4.49088 128.89 2.49665 147.945C7.51769 161.636 43.4653 156.043 61.4095 160.49C67.8521 162.087 71.2544 163.983 77.9237 160.807C84.593 157.632 84.2757 150.327 84.2757 150.327C84.2757 150.327 77.2587 141.276 66.3019 135.559C55.3452 129.843 42.9889 130.319 42.9889 130.319C42.9889 130.319 47.5974 126.86 51.5551 122.695" stroke="#1E1E1E" stroke-width="1.3" stroke-linecap="round" stroke-linejoin="round"/>
<path d="M91.4062 145.118C87.6781 132.72 77.9285 122.929 65.555 119.144" stroke="#1E1E1E" stroke-width="1.3" stroke-linecap="round" stroke-linejoin="round"/>
<path d="M70.214 127.628C70.214 127.628 80.0588 132.392 82.9171 139.697" stroke="#1E1E1E" stroke-width="1.3" stroke-linecap="round" stroke-linejoin="round"/>
<path d="M92.6819 33.0604C92.6819 33.0604 101.278 28.6473 107.77 30.2393C114.261 31.8314 118.779 37.5965 117.659 45.2033C116.537 52.8083 108.583 57.1967 100.441 57.2414C92.2961 57.2862 85.4819 57.3243 81.6595 57.3453C77.837 57.3663 62.2108 57.09 62.147 44.968C62.0784 32.8442 69.0021 29.9125 76.6118 30.9548C82.9543 31.8247 87.1055 35.5567 92.6819 33.0604Z" fill="#FBECCD" stroke="#1E1E1E" stroke-width="1.3" stroke-linecap="round" stroke-linejoin="round"/>
<path d="M108.463 35.348C105.003 35.3661 100.491 35.7996 100.506 38.7875C100.519 41.2551 105.127 42.5223 109.009 44.0305C111.186 44.8765 116.067 48.6075 116.457 48.9058C117.042 47.7739 117.46 46.541 117.659 45.2033C118.036 42.6423 117.76 40.2947 116.998 38.2387C116.986 38.2282 113.065 35.3213 108.463 35.348Z" fill="#727875" stroke="#1E1E1E" stroke-width="1.3" stroke-linecap="round" stroke-linejoin="round"/>
<path d="M71.5316 36.1359C67.6024 36.1579 63.8162 38.5074 62.7786 39.2038C62.3585 40.8416 62.1317 42.7471 62.146 44.969C62.1536 46.4496 62.3947 47.7491 62.8177 48.8981C62.9368 48.8048 68.3037 44.5974 70.5398 43.7008C74.4051 42.1498 78.9974 41.3761 78.9831 38.9075C78.9717 36.7314 74.9901 36.1169 71.5316 36.1359Z" fill="#727875" stroke="#1E1E1E" stroke-width="1.3" stroke-linecap="round" stroke-linejoin="round"/>
<path d="M105.625 40.218C106.727 40.212 107.617 39.5614 107.613 38.7648C107.609 37.9681 106.711 37.3271 105.61 37.3331C104.508 37.339 103.619 37.9896 103.622 38.7863C103.627 39.5829 104.524 40.224 105.625 40.218Z" fill="#1E1E1E"/>
<path d="M74.2927 37.7713C73.425 37.7761 72.7249 38.3683 72.729 39.0939C72.7331 39.8195 73.4397 40.4038 74.3074 40.399C75.1751 40.3941 75.8753 39.8019 75.8712 39.0763C75.8671 38.3506 75.1604 37.7664 74.2927 37.7713Z" fill="#1E1E1E"/>
<path d="M80.7105 43.374C80.7105 43.374 83.664 47.1565 90.5782 47.1184C95.4411 47.0917 100.53 43.5341 100.53 43.5341" stroke="#1E1E1E" stroke-width="1.3" stroke-linecap="round" stroke-linejoin="round"/>
<path d="M90.3803 44.403C92.6856 44.3904 94.5483 43.2859 94.5409 41.9362C94.5334 40.5866 92.6587 39.5027 90.3534 39.5154C88.0482 39.5281 86.1854 40.6325 86.1928 41.9822C86.2002 43.3318 88.0751 44.4157 90.3803 44.403Z" fill="#663F36" stroke="#1E1E1E" stroke-width="1.3" stroke-linecap="round" stroke-linejoin="round"/>
<path d="M151.664 132.345C151.664 132.345 149.944 133.072 149.832 133.119C141.783 137.931 126.46 140.232 125.809 140.326C125.767 140.337 117.873 142.242 116.428 147.723C118.266 146.684 120.643 145.413 123.221 144.242C125.445 143.23 128.215 142.848 131.722 142.363C136.839 141.655 143.208 140.775 151.602 137.556C161.925 133.599 166.559 127.183 168.256 124.157C165.401 125.566 151.664 132.345 151.664 132.345Z" fill="#F29C61"/>
<path d="M121.061 143.61C121.061 143.61 108.391 145.103 103.061 149.732C97.7325 154.362 96.8617 157.179 96.8617 157.179C96.8617 157.179 101.348 152.674 107.965 150.925C114.58 149.177 122.202 148.432 122.202 148.432C122.202 148.432 125.066 144.551 121.061 143.61Z" fill="#F2F2F2" stroke="#1E1E1E" stroke-width="1.3" stroke-linecap="round" stroke-linejoin="round"/>
<path d="M121.27 148.137C121.27 148.137 108.601 149.629 103.272 154.26C97.9421 158.888 97.0713 161.707 97.0713 161.707C97.0713 161.707 101.56 157.201 108.175 155.453C114.789 153.703 122.414 152.958 122.414 152.958C122.414 152.958 125.277 149.078 121.27 148.137Z" fill="#F2F2F2" stroke="#1E1E1E" stroke-width="1.3" stroke-linecap="round" stroke-linejoin="round"/>
<path d="M123.584 153.059C123.584 153.059 110.916 154.551 105.585 159.182C100.255 163.812 99.3856 166.628 99.3856 166.628C99.3856 166.628 103.872 162.122 110.487 160.375C117.103 158.626 124.726 157.88 124.726 157.88C124.726 157.88 127.589 154 123.584 153.059Z" fill="#F2F2F2" stroke="#1E1E1E" stroke-width="1.3" stroke-linecap="round" stroke-linejoin="round"/>
<path d="M43.0146 130.987C43.0146 130.987 38.0869 131.175 33.1888 131.362C38.4147 132.004 44.983 133.088 51.739 134.916C65.9304 138.759 73.1123 142.994 76.5631 145.027L77.3063 145.463C78.199 145.979 78.9031 146.101 79.4157 146.06C76.3469 143.065 71.7527 139.156 65.9942 136.152C55.33 130.588 43.1366 130.982 43.0146 130.987Z" fill="#F29C61"/>
<path d="M76.0449 145.002C76.0449 145.002 88.6899 146.687 93.9491 151.396C99.2093 156.104 100.035 158.935 100.035 158.935C100.035 158.935 95.6183 154.363 89.03 152.514C82.4407 150.667 74.8301 149.807 74.8301 149.807C74.8301 149.807 72.0261 145.882 76.0449 145.002Z" fill="#F2F2F2" stroke="#1E1E1E" stroke-width="1.3" stroke-linecap="round" stroke-linejoin="round"/>
<path d="M73.8411 154.786C73.8411 154.786 86.4861 156.47 91.7453 161.179C97.0046 165.889 97.8316 168.718 97.8316 168.718C97.8316 168.718 93.4127 164.146 86.8263 162.298C80.236 160.45 72.6254 159.589 72.6254 159.589C72.6254 159.589 69.8224 155.667 73.8411 154.786Z" fill="#F2F2F2" stroke="#1E1E1E" stroke-width="1.3" stroke-linecap="round" stroke-linejoin="round"/>
<path d="M75.0826 150.138C75.0826 150.138 87.7295 151.824 92.9859 156.532C98.246 161.241 99.0749 164.072 99.0749 164.072C99.0749 164.072 94.6541 159.5 88.0658 157.652C81.4784 155.803 73.8669 154.942 73.8669 154.942C73.8669 154.942 71.0648 151.021 75.0826 150.138Z" fill="#F2F2F2" stroke="#1E1E1E" stroke-width="1.3" stroke-linecap="round" stroke-linejoin="round"/>
<path d="M96.0319 178.849C103.041 178.849 108.839 181.238 113.426 186.017C118.014 190.732 120.308 196.753 120.308 204.08C120.308 211.471 118.014 217.556 113.426 222.335C108.839 227.114 103.041 229.503 96.0319 229.503C89.0232 229.503 83.1933 227.114 78.542 222.335C73.9545 217.556 71.6607 211.471 71.6607 204.08C71.6607 196.753 73.9545 190.732 78.542 186.017C83.1933 181.238 89.0232 178.849 96.0319 178.849ZM96.0319 184.106C92.0816 184.106 89.0232 185.921 86.8569 189.553C84.7543 193.185 83.703 198.027 83.703 204.08C83.703 210.133 84.7543 215.008 86.8569 218.703C89.0232 222.399 92.0816 224.246 96.0319 224.246C99.9823 224.246 103.009 222.399 105.111 218.703C107.278 214.944 108.361 210.07 108.361 204.08C108.361 198.027 107.278 193.185 105.111 189.553C103.009 185.921 99.9823 184.106 96.0319 184.106Z" fill="#343434"/>
</svg>
